# xmcd
#
# Track frame offsets: 
#        150
#        12522
#        25149
#        38830
#        53383
#        68242
#        78469
#        92600
#        103153
#        116559
#        130145
#
# Disc length: 1892 seconds
#
# Revision: 0
# Processed by: cddbd v1.5.2PL0 Copyright (c) Steve Scherf et al.
# Submitted via: ExactAudioCopy v1.1
#
DISCID=8607620b
DTITLE=Michael Gately - Still 'Round
DYEAR=1972
DGENRE=Folk/Rock
TTITLE0=With You Today
TTITLE1=No Dry Change
TTITLE2=You Just Run Away
TTITLE3=Did The Mornin' Tell You
TTITLE4=You're Too Busy Being Free
TTITLE5=Country Ladies
TTITLE6=I Couldn't Love You More
TTITLE7=All Too True Blues
TTITLE8=Will You Be Here
TTITLE9=I Don't Know If I Should Love You (Lynn's Song)
TTITLE10=But Then Again
EXTD=
EXTT0=
EXTT1=
EXTT2=
EXTT3=
EXTT4=
EXTT5=
EXTT6=
EXTT7=
EXTT8=
EXTT9=
EXTT10=
PLAYORDER=
